<svg xmlns="http://www.w3.org/2000/svg" xmlns:xlink="http://www.w3.org/1999/xlink" viewBox="0 0 302.05 330.5"><defs><style>.cls-1{fill:none;}.cls-2{isolation:isolate;}.cls-3{fill:url(#linear-gradient);}.cls-4{clip-path:url(#clip-path);}.cls-12,.cls-5,.cls-8{mix-blend-mode:soft-light;}.cls-5{fill:url(#linear-gradient-2);}.cls-6{fill:url(#linear-gradient-5);}.cls-7{clip-path:url(#clip-path-2);}.cls-8{fill:url(#linear-gradient-6);}.cls-9{fill:url(#linear-gradient-9);}.cls-10{clip-path:url(#clip-path-3);}.cls-11{clip-path:url(#clip-path-4);}.cls-13{fill:url(#linear-gradient-10);}.cls-14{fill:url(#linear-gradient-13);}.cls-15{fill:url(#linear-gradient-14);}.cls-16{fill:url(#linear-gradient-15);}.cls-17{fill:url(#linear-gradient-16);}.cls-18{fill:url(#linear-gradient-17);}.cls-19{fill:url(#linear-gradient-18);}.cls-20{fill:url(#linear-gradient-19);}.cls-21{fill:url(#linear-gradient-20);}.cls-22{fill:url(#linear-gradient-21);}.cls-23{fill:url(#linear-gradient-22);}.cls-24{fill:url(#linear-gradient-23);}.cls-25{fill:url(#linear-gradient-24);}</style><linearGradient id="linear-gradient" x1="616.65" y1="388.61" x2="813.24" y2="388.61" gradientTransform="matrix(0.39, 0.92, -0.92, 0.39, 761.17, -438.18)" gradientUnits="userSpaceOnUse"><stop offset="0" stop-color="#b27f2a"/><stop offset="0.09" stop-color="#b5842f"/><stop offset="0.2" stop-color="#c0933e"/><stop offset="0.32" stop-color="#d0ad56"/><stop offset="0.45" stop-color="#e7cf78"/><stop offset="0.52" stop-color="#f4e38b"/><stop offset="0.73" stop-color="#f3e189"/><stop offset="0.81" stop-color="#eeda83"/><stop offset="0.87" stop-color="#e6cf77"/><stop offset="0.91" stop-color="#dbbe67"/><stop offset="0.95" stop-color="#cda851"/><stop offset="0.99" stop-color="#bb8d38"/><stop offset="1" stop-color="#b27f2a"/></linearGradient><clipPath id="clip-path" transform="translate(-574.25 -172.65)"><path class="cls-1" d="M762.44,387.05c-2.19-27.66-26.59-56-48.28-81.9-1.35-1.72-2.29-2.74-2.29-2.74s-11.3,25.9-24.06,48.6-15.32,58.85,12.55,70.7c0,0-15.75-13.24-.28-41,4.38-7.86,11.29-19.1,16.57-29.78,10.17,13.69,18.13,27.11,19,38.22,2.33,29.29-13.24,49.57-39.66,51.67s-45-15.48-47.31-44.76c-1.13-14.26,8.62-34.11,19.85-53.65.85-1.6,2.17-3.87,4-6.92h0l1.31-2.22c22-38.14,6.21-67.32,6.21-67.32h0c-10.32,36.65-61.65,88.48-58.18,132.23,3.7,46.64,37.41,72.49,76.22,69.41S766.14,433.68,762.44,387.05Z"/></clipPath><linearGradient id="linear-gradient-2" x1="629.04" y1="403.87" x2="825.63" y2="403.87" gradientTransform="matrix(0.39, 0.92, -0.92, 0.39, 769.51, -441.71)" gradientUnits="userSpaceOnUse"><stop offset="0"/><stop offset="0.86" stop-opacity="0.53"/><stop offset="1" stop-opacity="0"/></linearGradient><linearGradient id="linear-gradient-5" x1="722.36" y1="378.42" x2="862.75" y2="378.42" gradientTransform="matrix(1, 0, 0, 1, 0, 0)" xlink:href="#linear-gradient"/><clipPath id="clip-path-2" transform="translate(-574.25 -172.65)"><path class="cls-1" d="M862.75,446.67c-22.82,10.26-45.38,1.31-62.1-14.87-12,22.37-34.18,41.28-59.21,34.76l1.74-.93a74.41,74.41,0,0,0,13.14-9.19,68.52,68.52,0,0,0,5.67-5.51c11.77-12.72,19.31-29.9,20.61-50.43a107.76,107.76,0,0,0-.38-17.78c-2.83-27.48-25.16-55.1-47.65-80.91-1.36-1.64-2.77-3.25-4.2-4.81l-.14-.16c-2.47-2.7-5-5.26-7.56-7.55l-.31-.28h1c30.09-.35,65.9,31.42,75,59.59.29.89.95,2.78,1.83,5.24,14.75-19.72,38.42-33.45,62.56-22.75,0,0-21.17-2.56-33.5,26.22l0,0c-.21.5-4.85,9.5-11.72,29.5-.38,1.12-1.42,4-2.72,7.67a242,242,0,0,0,9.53,22.5l0,0C838.58,449.72,862.75,446.67,862.75,446.67Z"/></clipPath><linearGradient id="linear-gradient-6" x1="876.31" y1="388.3" x2="708.79" y2="388.3" gradientTransform="matrix(1, 0, 0, 1, 0, 0)" xlink:href="#linear-gradient-2"/><linearGradient id="linear-gradient-9" x1="574.25" y1="320.92" x2="646.58" y2="320.92" gradientTransform="matrix(1, 0, 0, 1, 0, 0)" xlink:href="#linear-gradient"/><clipPath id="clip-path-3" transform="translate(-574.25 -172.65)"><path class="cls-1" d="M646.58,466.91c-19.15,5-27.36.72-34.07-2.24-9.81-4.35-18.48-10.29-24.57-19-11.35-16.32-16.33-41.28-12.31-60.9,6.31-30.84,28.48-54.67,39.62-83.55,7.28-18.89,10.55-39,12.72-59.08,1.33-12.27,2.22-24.59,3-36.91q.53-7.92,1-15.85l.48-8.07c.12-1.94,0,.26.51-8.63,7,13.71,7.52,26.12,8.27,39.23,1.4,24.64-.14,60.17-5.12,87.72-3.1,17.21-15.47,46.16-22.33,59.46-8.19,14.17-14.05,28.42-14,42A86.46,86.46,0,0,0,601,415.3c2.75,16.28,10.2,29.36,20.69,38.53a55.22,55.22,0,0,0,5,3.93A60.1,60.1,0,0,0,637.91,464,62.19,62.19,0,0,0,646.58,466.91Z"/></clipPath><clipPath id="clip-path-4" transform="translate(-574.25 -172.65)"><path class="cls-1" d="M646.58,479c-19.15,5-27.36.73-34.07-2.24-9.81-4.34-18.48-10.28-24.57-19-11.35-16.32-16.33-41.28-12.31-60.9,6.31-30.84,28.48-54.67,39.62-83.55,7.28-18.89,10.55-39,12.72-59.08,1.33-12.27,2.22-24.59,3-36.91q.53-7.92,1-15.85l.48-8.07c.12-1.94,0,.26.51-8.63,7,13.71,7.52,26.12,8.27,39.23,1.4,24.64-.14,60.17-5.12,87.72-3.1,17.21-15.47,46.16-22.33,59.46-8.19,14.17-14.05,28.42-14,42A86.46,86.46,0,0,0,601,427.38c2.75,16.28,10.2,29.36,20.69,38.53a55.22,55.22,0,0,0,5,3.93,60.1,60.1,0,0,0,11.28,6.23A62.19,62.19,0,0,0,646.58,479Z"/></clipPath><linearGradient id="linear-gradient-10" x1="701.81" y1="224.45" x2="570" y2="452.75" gradientTransform="matrix(1, 0, 0, 1, 0, 0)" xlink:href="#linear-gradient-2"/><linearGradient id="linear-gradient-13" x1="753.04" y1="487.95" x2="766.37" y2="487.95" gradientUnits="userSpaceOnUse"><stop offset="0" stop-color="#b27f2a"/><stop offset="0.04" stop-color="#ba8b36"/><stop offset="0.18" stop-color="#d3b15b"/><stop offset="0.31" stop-color="#e5cc75"/><stop offset="0.43" stop-color="#f0dd85"/><stop offset="0.52" stop-color="#f4e38b"/><stop offset="0.81" stop-color="#f4dd62"/><stop offset="1" stop-color="#f4dd62"/><stop offset="1" stop-color="#b27f2a"/></linearGradient><linearGradient id="linear-gradient-14" x1="772.29" y1="493.65" x2="785.59" y2="493.65" xlink:href="#linear-gradient-13"/><linearGradient id="linear-gradient-15" x1="791.53" y1="490.8" x2="804.83" y2="490.8" gradientTransform="matrix(1, 0, 0, 1, 0, 0)" xlink:href="#linear-gradient"/><linearGradient id="linear-gradient-16" x1="810.46" y1="490.8" x2="823.76" y2="490.8" xlink:href="#linear-gradient-13"/><linearGradient id="linear-gradient-17" x1="830.02" y1="490.8" x2="843.32" y2="490.8" xlink:href="#linear-gradient-13"/><linearGradient id="linear-gradient-18" x1="849.58" y1="493.65" x2="862.88" y2="493.65" xlink:href="#linear-gradient-13"/><linearGradient id="linear-gradient-19" x1="753.04" y1="487.95" x2="766.37" y2="487.95" gradientTransform="matrix(1, 0, 0, 1, 0, 0)" xlink:href="#linear-gradient-2"/><linearGradient id="linear-gradient-20" x1="772.29" y1="493.65" x2="785.59" y2="493.65" gradientTransform="matrix(1, 0, 0, 1, 0, 0)" xlink:href="#linear-gradient-2"/><linearGradient id="linear-gradient-21" x1="791.53" y1="490.8" x2="804.83" y2="490.8" gradientTransform="matrix(1, 0, 0, 1, 0, 0)" xlink:href="#linear-gradient-2"/><linearGradient id="linear-gradient-22" x1="810.46" y1="490.8" x2="823.76" y2="490.8" gradientTransform="matrix(1, 0, 0, 1, 0, 0)" xlink:href="#linear-gradient-2"/><linearGradient id="linear-gradient-23" x1="830.02" y1="490.8" x2="843.32" y2="490.8" gradientTransform="matrix(1, 0, 0, 1, 0, 0)" xlink:href="#linear-gradient-2"/><linearGradient id="linear-gradient-24" x1="849.58" y1="493.65" x2="862.88" y2="493.65" gradientTransform="matrix(1, 0, 0, 1, 0, 0)" xlink:href="#linear-gradient-2"/></defs><title>lox-logo</title><g class="cls-2"><g id="Objects"><g id="Flame"><path class="cls-3" d="M762.44,387.05c-2.19-27.66-26.59-56-48.28-81.9-1.35-1.72-2.29-2.74-2.29-2.74s-11.3,25.9-24.06,48.6-15.32,58.85,12.55,70.7c0,0-15.75-13.24-.28-41,4.38-7.86,11.29-19.1,16.57-29.78,10.17,13.69,18.13,27.11,19,38.22,2.33,29.29-13.24,49.57-39.66,51.67s-45-15.48-47.31-44.76c-1.13-14.26,8.62-34.11,19.85-53.65.85-1.6,2.17-3.87,4-6.92h0l1.31-2.22c22-38.14,6.21-67.32,6.21-67.32h0c-10.32,36.65-61.65,88.48-58.18,132.23,3.7,46.64,37.41,72.49,76.22,69.41S766.14,433.68,762.44,387.05Z" transform="translate(-574.25 -172.65)"/><g class="cls-4"><path class="cls-5" d="M762.55,400.46c-2.22-27.64-26.59-56-48.25-81.91C713,316.83,712,315.8,712,315.8s-11.24,25.88-23.93,48.55-14.22,57.91,13.6,69.78c0,0,3.37-11-1.34-40.05-1.43-8.87,11.24-19.08,16.5-29.75,10.16,13.69,18.1,16.73,19,27.84,2.35,29.28-13,56-39.31,58.08s-60.67-31.58-44.73-73.14c5.12-13.35,5.87-1.83,17-21.35.85-1.6,2.16-3.87,4-6.91h0l1.3-2.22c21.91-38.09,6.11-67.28,6.11-67.28h0C670,316,618.89,367.71,622.41,411.45c3.74,46.62,37.39,72.5,76.09,69.47S766.29,447.07,762.55,400.46Z" transform="translate(-574.25 -172.65)"/><path class="cls-5" d="M762.55,400.46c-2.22-27.64-26.59-56-48.25-81.91C713,316.83,712,315.8,712,315.8s-11.24,25.88-23.93,48.55-14.22,57.91,13.6,69.78c0,0,3.37-11-1.34-40.05-1.43-8.87,11.24-19.08,16.5-29.75,10.16,13.69,18.1,16.73,19,27.84,2.35,29.28-13,56-39.31,58.08s-60.67-31.58-44.73-73.14c5.12-13.35,5.87-1.83,17-21.35.85-1.6,2.16-3.87,4-6.91h0l1.3-2.22c21.91-38.09,6.11-67.28,6.11-67.28h0C670,316,618.89,367.71,622.41,411.45c3.74,46.62,37.39,72.5,76.09,69.47S766.29,447.07,762.55,400.46Z" transform="translate(-574.25 -172.65)"/><path class="cls-5" d="M762.55,400.46c-2.22-27.64-26.59-56-48.25-81.91C713,316.83,712,315.8,712,315.8s-11.24,25.88-23.93,48.55-14.22,57.91,13.6,69.78c0,0,3.37-11-1.34-40.05-1.43-8.87,11.24-19.08,16.5-29.75,10.16,13.69,18.1,16.73,19,27.84,2.35,29.28-13,56-39.31,58.08s-60.67-31.58-44.73-73.14c5.12-13.35,5.87-1.83,17-21.35.85-1.6,2.16-3.87,4-6.91h0l1.3-2.22c21.91-38.09,6.11-67.28,6.11-67.28h0C670,316,618.89,367.71,622.41,411.45c3.74,46.62,37.39,72.5,76.09,69.47S766.29,447.07,762.55,400.46Z" transform="translate(-574.25 -172.65)"/></g></g><path class="cls-6" d="M862.75,446.67c-22.82,10.26-45.38,1.31-62.1-14.87-12,22.37-34.18,41.28-59.21,34.76l1.74-.93a74.41,74.41,0,0,0,13.14-9.19,68.52,68.52,0,0,0,5.67-5.51c11.77-12.72,19.31-29.9,20.61-50.43a107.76,107.76,0,0,0-.38-17.78c-2.83-27.48-25.16-55.1-47.65-80.91-1.36-1.64-2.77-3.25-4.2-4.81l-.14-.16c-2.47-2.7-5-5.26-7.56-7.55l-.31-.28h1c30.09-.35,65.9,31.42,75,59.59.29.89.95,2.78,1.83,5.24,14.75-19.72,38.42-33.45,62.56-22.75,0,0-21.17-2.56-33.5,26.22l0,0c-.21.5-4.85,9.5-11.72,29.5-.38,1.12-1.42,4-2.72,7.67a242,242,0,0,0,9.53,22.5l0,0C838.58,449.72,862.75,446.67,862.75,446.67Z" transform="translate(-574.25 -172.65)"/><g class="cls-7"><path class="cls-8" d="M876.31,460.67c-26.73,10.26-53.14,1.31-72.72-14.87-14,22.37-40,41.28-69.34,34.76l2-.93a88.62,88.62,0,0,0,15.38-9.19,75.2,75.2,0,0,0,6.64-5.51c13.79-12.72,23.44-40.06,25-60.59a92,92,0,0,0-.44-17.78c-3.32-27.48-30.29-44.94-56.63-70.75-1.59-1.64-3.24-3.25-4.91-4.81l-.17-.16c-2.89-2.7-9.34-10.19-12.33-12.48-.11-.1,19.23-3.65,19.46-3.63,16.6,1.33,62,39.68,72.65,67.85.34.89,1.12,2.78,2.15,5.24,17.27-19.72,44.63-45.47,72.9-34.77,0,0-24.43,9.46-38.87,38.24l.06,0c-.25.5-5.68,9.5-13.73,29.5-.44,1.12-1.66,4-3.18,7.67a222.64,222.64,0,0,0,11.16,22.5l-.06,0C848,463.72,876.31,460.67,876.31,460.67Z" transform="translate(-574.25 -172.65)"/><path class="cls-8" d="M876.31,460.67c-26.73,10.26-53.14,1.31-72.72-14.87-14,22.37-40,41.28-69.34,34.76l2-.93a88.62,88.62,0,0,0,15.38-9.19,75.2,75.2,0,0,0,6.64-5.51c13.79-12.72,23.44-40.06,25-60.59a92,92,0,0,0-.44-17.78c-3.32-27.48-30.29-44.94-56.63-70.75-1.59-1.64-3.24-3.25-4.91-4.81l-.17-.16c-2.89-2.7-9.34-10.19-12.33-12.48-.11-.1,19.23-3.65,19.46-3.63,16.6,1.33,62,39.68,72.65,67.85.34.89,1.12,2.78,2.15,5.24,17.27-19.72,44.63-45.47,72.9-34.77,0,0-24.43,9.46-38.87,38.24l.06,0c-.25.5-5.68,9.5-13.73,29.5-.44,1.12-1.66,4-3.18,7.67a222.64,222.64,0,0,0,11.16,22.5l-.06,0C848,463.72,876.31,460.67,876.31,460.67Z" transform="translate(-574.25 -172.65)"/><path class="cls-8" d="M876.31,460.67c-26.73,10.26-53.14,1.31-72.72-14.87-14,22.37-40,41.28-69.34,34.76l2-.93a88.62,88.62,0,0,0,15.38-9.19,75.2,75.2,0,0,0,6.64-5.51c13.79-12.72,23.44-40.06,25-60.59a92,92,0,0,0-.44-17.78c-3.32-27.48-30.29-44.94-56.63-70.75-1.59-1.64-3.24-3.25-4.91-4.81l-.17-.16c-2.89-2.7-9.34-10.19-12.33-12.48-.11-.1,19.23-3.65,19.46-3.63,16.6,1.33,62,39.68,72.65,67.85.34.89,1.12,2.78,2.15,5.24,17.27-19.72,44.63-45.47,72.9-34.77,0,0-24.43,9.46-38.87,38.24l.06,0c-.25.5-5.68,9.5-13.73,29.5-.44,1.12-1.66,4-3.18,7.67a222.64,222.64,0,0,0,11.16,22.5l-.06,0C848,463.72,876.31,460.67,876.31,460.67Z" transform="translate(-574.25 -172.65)"/></g><path class="cls-9" d="M646.58,466.91c-19.15,5-27.36.72-34.07-2.24-9.81-4.35-18.48-10.29-24.57-19-11.35-16.32-16.33-41.28-12.31-60.9,6.31-30.84,28.48-54.67,39.62-83.55,7.28-18.89,10.55-39,12.72-59.08,1.33-12.27,2.22-24.59,3-36.91q.53-7.92,1-15.85l.48-8.07c.12-1.94,0,.26.51-8.63,7,13.71,7.52,26.12,8.27,39.23,1.4,24.64-.14,60.17-5.12,87.72-3.1,17.21-15.47,46.16-22.33,59.46-8.19,14.17-14.05,28.42-14,42A86.46,86.46,0,0,0,601,415.3c2.75,16.28,10.2,29.36,20.69,38.53a55.22,55.22,0,0,0,5,3.93A60.1,60.1,0,0,0,637.91,464,62.19,62.19,0,0,0,646.58,466.91Z" transform="translate(-574.25 -172.65)"/><g class="cls-10"><g class="cls-11"><g class="cls-12"><path class="cls-13" d="M646.58,479c-19.15,5-27.36.73-34.07-2.24-9.81-4.34-18.48-10.28-24.57-19-11.35-16.32-16.33-41.28-12.31-60.9,6.31-30.84,28.48-54.67,39.62-83.55,7.28-18.89,10.55-39,12.72-59.08,1.33-12.27,2.22-24.59,3-36.91q.53-7.92,1-15.85l.48-8.07c.12-1.94,0,.26.51-8.63,7,13.71,7.52,26.12,8.27,39.23,1.4,24.64-.14,60.17-5.12,87.72-3.1,17.21-15.47,46.16-22.33,59.46-8.19,14.17-7.48-1.56-12.91,19.19-4,15.41-2.26,30.44,2,45.59a63,63,0,0,0,18.74,30,55.22,55.22,0,0,0,5,3.93,60.1,60.1,0,0,0,11.28,6.23A62.19,62.19,0,0,0,646.58,479Z" transform="translate(-574.25 -172.65)"/></g><g class="cls-12"><path class="cls-13" d="M646.58,479c-19.15,5-27.36.73-34.07-2.24-9.81-4.34-18.48-10.28-24.57-19-11.35-16.32-16.33-41.28-12.31-60.9,6.31-30.84,28.48-54.67,39.62-83.55,7.28-18.89,10.55-39,12.72-59.08,1.33-12.27,2.22-24.59,3-36.91q.53-7.92,1-15.85l.48-8.07c.12-1.94,0,.26.51-8.63,7,13.71,7.52,26.12,8.27,39.23,1.4,24.64-.14,60.17-5.12,87.72-3.1,17.21-15.47,46.16-22.33,59.46-8.19,14.17-7.48-1.56-12.91,19.19-4,15.41-2.26,30.44,2,45.59a63,63,0,0,0,18.74,30,55.22,55.22,0,0,0,5,3.93,60.1,60.1,0,0,0,11.28,6.23A62.19,62.19,0,0,0,646.58,479Z" transform="translate(-574.25 -172.65)"/></g><g class="cls-12"><path class="cls-13" d="M646.58,479c-19.15,5-27.36.73-34.07-2.24-9.81-4.34-18.48-10.28-24.57-19-11.35-16.32-16.33-41.28-12.31-60.9,6.31-30.84,28.48-54.67,39.62-83.55,7.28-18.89,10.55-39,12.72-59.08,1.33-12.27,2.22-24.59,3-36.91q.53-7.92,1-15.85l.48-8.07c.12-1.94,0,.26.51-8.63,7,13.71,7.52,26.12,8.27,39.23,1.4,24.64-.14,60.17-5.12,87.72-3.1,17.21-15.47,46.16-22.33,59.46-8.19,14.17-7.48-1.56-12.91,19.19-4,15.41-2.26,30.44,2,45.59a63,63,0,0,0,18.74,30,55.22,55.22,0,0,0,5,3.93,60.1,60.1,0,0,0,11.28,6.23A62.19,62.19,0,0,0,646.58,479Z" transform="translate(-574.25 -172.65)"/></g></g></g></g><g id="Layer_5" data-name="Layer 5"><path class="cls-14" d="M756.65,491.75l-1.63,5.7h-2l5.45-19h2.43l5.45,19h-2l-1.63-5.7Zm3.06-10.67-2.51,8.77h5Z" transform="translate(-574.25 -172.65)"/><path class="cls-15" d="M772.29,488.58c0-2.95,1.47-4.43,4.43-4.43h4.43q4.44,0,4.44,4.43v10.14q0,4.42-4.44,4.43h-8.86v-1.9h8.86a2.24,2.24,0,0,0,2.54-2.53v-1.27h-7c-3,0-4.43-1.48-4.43-4.43Zm4.43-2.53a2.24,2.24,0,0,0-2.53,2.53V493a2.23,2.23,0,0,0,2.53,2.53h7v-7a2.24,2.24,0,0,0-2.54-2.53Z" transform="translate(-574.25 -172.65)"/><path class="cls-16" d="M800.4,495.55a2.23,2.23,0,0,0,2.53-2.53h1.9q0,4.43-4.43,4.43H796q-4.43,0-4.43-4.43v-4.44q0-4.43,4.43-4.43h4.44q4.43,0,4.43,3.8c0,1.84-.64,2.9-1.92,3.17l-9.47,2.15a2.19,2.19,0,0,0,2.52,2.28Zm-4.44-9.5a2.24,2.24,0,0,0-2.53,2.53v2.73l9-2.07a.66.66,0,0,0,.52-.66,2.24,2.24,0,0,0-2.53-2.53Z" transform="translate(-574.25 -172.65)"/><path class="cls-17" d="M817.42,486.05h-5.06v11.4h-1.9v-13.3h7q6.35,0,6.34,6.33v7h-1.9v-7Q821.86,486.05,817.42,486.05Z" transform="translate(-574.25 -172.65)"/><path class="cls-18" d="M838.88,495.55a2.24,2.24,0,0,0,2.54-2.53h1.9q0,4.43-4.44,4.43h-4.43c-3,0-4.43-1.48-4.43-4.43v-4.44c0-2.95,1.47-4.43,4.43-4.43h4.43q4.44,0,4.44,4.43h-1.9a2.24,2.24,0,0,0-2.54-2.53h-4.43a2.24,2.24,0,0,0-2.53,2.53V493a2.23,2.23,0,0,0,2.53,2.53Z" transform="translate(-574.25 -172.65)"/><path class="cls-19" d="M849.58,484.15h1.9V493a2.23,2.23,0,0,0,2.53,2.53h4.44A2.24,2.24,0,0,0,861,493v-8.87h1.9v14.57q0,4.42-4.43,4.43h-8.87v-1.9h8.87a2.24,2.24,0,0,0,2.53-2.53v-1.8a5.42,5.42,0,0,1-2.53.53H854q-4.43,0-4.43-4.43Z" transform="translate(-574.25 -172.65)"/></g><g id="Layer_5_copy" data-name="Layer 5 copy" class="cls-12"><path class="cls-20" d="M756.65,491.75l-1.63,5.7h-2l5.45-19h2.43l5.45,19h-2l-1.63-5.7Zm3.06-10.67-2.51,8.77h5Z" transform="translate(-574.25 -172.65)"/><path class="cls-21" d="M772.29,488.58c0-2.95,1.47-4.43,4.43-4.43h4.43q4.44,0,4.44,4.43v10.14q0,4.42-4.44,4.43h-8.86v-1.9h8.86a2.24,2.24,0,0,0,2.54-2.53v-1.27h-7c-3,0-4.43-1.48-4.43-4.43Zm4.43-2.53a2.24,2.24,0,0,0-2.53,2.53V493a2.23,2.23,0,0,0,2.53,2.53h7v-7a2.24,2.24,0,0,0-2.54-2.53Z" transform="translate(-574.25 -172.65)"/><path class="cls-22" d="M800.4,495.55a2.23,2.23,0,0,0,2.53-2.53h1.9q0,4.43-4.43,4.43H796q-4.43,0-4.43-4.43v-4.44q0-4.43,4.43-4.43h4.44q4.43,0,4.43,3.8c0,1.84-.64,2.9-1.92,3.17l-9.47,2.15a2.19,2.19,0,0,0,2.52,2.28Zm-4.44-9.5a2.24,2.24,0,0,0-2.53,2.53v2.73l9-2.07a.66.66,0,0,0,.52-.66,2.24,2.24,0,0,0-2.53-2.53Z" transform="translate(-574.25 -172.65)"/><path class="cls-23" d="M817.42,486.05h-5.06v11.4h-1.9v-13.3h7q6.35,0,6.34,6.33v7h-1.9v-7Q821.86,486.05,817.42,486.05Z" transform="translate(-574.25 -172.65)"/><path class="cls-24" d="M838.88,495.55a2.24,2.24,0,0,0,2.54-2.53h1.9q0,4.43-4.44,4.43h-4.43c-3,0-4.43-1.48-4.43-4.43v-4.44c0-2.95,1.47-4.43,4.43-4.43h4.43q4.44,0,4.44,4.43h-1.9a2.24,2.24,0,0,0-2.54-2.53h-4.43a2.24,2.24,0,0,0-2.53,2.53V493a2.23,2.23,0,0,0,2.53,2.53Z" transform="translate(-574.25 -172.65)"/><path class="cls-25" d="M849.58,484.15h1.9V493a2.23,2.23,0,0,0,2.53,2.53h4.44A2.24,2.24,0,0,0,861,493v-8.87h1.9v14.57q0,4.42-4.43,4.43h-8.87v-1.9h8.87a2.24,2.24,0,0,0,2.53-2.53v-1.8a5.42,5.42,0,0,1-2.53.53H854q-4.43,0-4.43-4.43Z" transform="translate(-574.25 -172.65)"/></g><g id="Layer_5_copy_2" data-name="Layer 5 copy 2" class="cls-12"><path class="cls-20" d="M756.65,491.75l-1.63,5.7h-2l5.45-19h2.43l5.45,19h-2l-1.63-5.7Zm3.06-10.67-2.51,8.77h5Z" transform="translate(-574.25 -172.65)"/><path class="cls-21" d="M772.29,488.58c0-2.95,1.47-4.43,4.43-4.43h4.43q4.44,0,4.44,4.43v10.14q0,4.42-4.44,4.43h-8.86v-1.9h8.86a2.24,2.24,0,0,0,2.54-2.53v-1.27h-7c-3,0-4.43-1.48-4.43-4.43Zm4.43-2.53a2.24,2.24,0,0,0-2.53,2.53V493a2.23,2.23,0,0,0,2.53,2.53h7v-7a2.24,2.24,0,0,0-2.54-2.53Z" transform="translate(-574.25 -172.65)"/><path class="cls-22" d="M800.4,495.55a2.23,2.23,0,0,0,2.53-2.53h1.9q0,4.43-4.43,4.43H796q-4.43,0-4.43-4.43v-4.44q0-4.43,4.43-4.43h4.44q4.43,0,4.43,3.8c0,1.84-.64,2.9-1.92,3.17l-9.47,2.15a2.19,2.19,0,0,0,2.52,2.28Zm-4.44-9.5a2.24,2.24,0,0,0-2.53,2.53v2.73l9-2.07a.66.66,0,0,0,.52-.66,2.24,2.24,0,0,0-2.53-2.53Z" transform="translate(-574.25 -172.65)"/><path class="cls-23" d="M817.42,486.05h-5.06v11.4h-1.9v-13.3h7q6.35,0,6.34,6.33v7h-1.9v-7Q821.86,486.05,817.42,486.05Z" transform="translate(-574.25 -172.65)"/><path class="cls-24" d="M838.88,495.55a2.24,2.24,0,0,0,2.54-2.53h1.9q0,4.43-4.44,4.43h-4.43c-3,0-4.43-1.48-4.43-4.43v-4.44c0-2.95,1.47-4.43,4.43-4.43h4.43q4.44,0,4.44,4.43h-1.9a2.24,2.24,0,0,0-2.54-2.53h-4.43a2.24,2.24,0,0,0-2.53,2.53V493a2.23,2.23,0,0,0,2.53,2.53Z" transform="translate(-574.25 -172.65)"/><path class="cls-25" d="M849.58,484.15h1.9V493a2.23,2.23,0,0,0,2.53,2.53h4.44A2.24,2.24,0,0,0,861,493v-8.87h1.9v14.57q0,4.42-4.43,4.43h-8.87v-1.9h8.87a2.24,2.24,0,0,0,2.53-2.53v-1.8a5.42,5.42,0,0,1-2.53.53H854q-4.43,0-4.43-4.43Z" transform="translate(-574.25 -172.65)"/></g></g></svg>